<svg width="163" height="22" viewBox="0 0 163 22" fill="none" xmlns="http://www.w3.org/2000/svg">
<path d="M12.49 19.51L7.90002 0.22998H4.06006V0.829956H4.53003C5.37003 0.829956 5.85002 1.17001 6.02002 1.89001L6.12 2.27997L1.90002 19.87C1.81002 20.34 1.49006 20.57 0.940063 20.57H0V21.17H4.63V20.57H3.42004C3.14004 20.57 2.95999 20.51 2.85999 20.4C2.77999 20.3 2.76005 20.14 2.80005 19.92L4.85999 11.32H8.26001L10.2201 19.57C10.3001 19.9 10.27 20.14 10.15 20.3C10.01 20.48 9.73006 20.57 9.31006 20.57H8.76001V21.17H14.6901V20.57H13.98C13.13 20.57 12.66 20.23 12.49 19.51ZM5 10.71L6.56006 4.20001L8.12 10.71H5Z" fill="#F9F1E7"/>
<path d="M21.4305 0.820007H22.4506C22.9906 0.820007 23.2505 1.04996 23.2505 1.51996V17.27C23.2505 19.33 22.0705 20.56 20.1005 20.56C18.2405 20.56 17.2905 19.45 17.2905 17.27V2.01001C17.2905 1.50001 17.4705 0.820007 18.9905 0.820007H19.1105V0.219971H13.2305V0.820007H13.3505C14.5205 0.820007 15.0505 1.17999 15.0505 1.98999V17.16C15.0505 19.82 16.8105 21.4 19.7705 21.4C22.7305 21.4 24.0205 19.93 24.0205 17.04V1.51996C24.0205 1.04996 24.2806 0.820007 24.8206 0.820007H25.8406V0.219971H21.4205V0.820007H21.4305Z" fill="#F9F1E7"/>
<path d="M26.9304 0.219971L26.6504 5.04999H27.3004L27.4604 1.88C27.5104 1.17 27.9303 0.820007 28.7303 0.820007H31.5404V19.11C31.5404 20.14 30.9704 20.56 29.5804 20.56H29.4604V21.16H35.8604V20.56H35.7404C34.3504 20.56 33.7804 20.14 33.7804 19.11V0.820007H36.5905C37.4005 0.820007 37.8204 1.17 37.8704 1.88L38.0304 5.06H38.6804L38.4004 0.22998H26.9404L26.9304 0.219971Z" fill="#F9F1E7"/>
<path d="M48.1903 0.820007H48.3103C49.4703 0.820007 50.0103 1.27996 50.0103 2.26996V8.84998H44.0503V2.26996C44.0503 1.27996 44.5902 0.820007 45.7502 0.820007H45.8702V0.219971H39.9902V0.820007H40.1102C41.2702 0.820007 41.8103 1.27996 41.8103 2.26996V19.11C41.8103 20.1 41.2702 20.56 40.1102 20.56H39.9902V21.16H45.8702V20.56H45.7502C44.5902 20.56 44.0503 20.1 44.0503 19.11V9.45001H50.0103V19.11C50.0103 20.1 49.4703 20.56 48.3103 20.56H48.1903V21.16H54.0703V20.56H53.9503C52.7903 20.56 52.2502 20.1 52.2502 19.11V2.26996C52.2502 1.27996 52.7903 0.820007 53.9503 0.820007H54.0703V0.219971H48.1903V0.820007Z" fill="#F9F1E7"/>
<path d="M66.0096 19.39C65.9596 20.19 65.5096 20.57 64.5996 20.57H61.9297C60.7697 20.57 60.2296 20.11 60.2296 19.12V9.45996H62.4297C63.0697 9.45996 63.3596 9.70997 63.3596 10.28V11.09H64.0096V7.23999H63.3596V8.04999C63.3596 8.60999 63.0697 8.87 62.4297 8.87H60.2296V0.839966H64.3596C65.1696 0.839966 65.5896 1.18996 65.6096 1.89996L65.7997 5.07001H66.4497L66.1697 0.23999H56.1797V0.839966H56.2997C57.4597 0.839966 57.9996 1.29998 57.9996 2.28998V19.13C57.9996 20.12 57.4597 20.58 56.2997 20.58H56.1797V21.18H66.5697L66.8496 15.52H66.1997L66.0096 19.4V19.39Z" fill="#F9F1E7"/>
<path d="M77.9796 0.820007H78.9197C79.4597 0.820007 79.7197 1.04996 79.7197 1.51996V16.36L71.4697 0.219971H68.3097V0.630005C68.3097 1.03 68.6796 1.11 69.0096 1.19C69.2596 1.25 69.5296 1.31001 69.6196 1.51001L69.9497 2.12V19.86C69.9497 20.33 69.6897 20.56 69.1497 20.56H68.1797V21.16H72.4697V20.56H71.5297C70.9897 20.56 70.7296 20.33 70.7296 19.86V3.63L79.7396 21.09L79.7797 21.16H80.5096V1.51996C80.5096 1.04996 80.7697 0.820007 81.3097 0.820007H82.2797V0.219971H77.9896V0.820007H77.9796Z" fill="#F9F1E7"/>
<path d="M83.61 0.219971L83.3301 5.04999H83.98L84.14 1.88C84.19 1.17 84.61 0.820007 85.42 0.820007H88.23V19.11C88.23 20.14 87.66 20.56 86.27 20.56H86.15V21.16H92.55V20.56H92.4301C91.0401 20.56 90.4701 20.14 90.4701 19.11V0.820007H93.28C94.09 0.820007 94.51 1.17 94.55 1.88L94.7201 5.06H95.37L95.0901 0.22998H83.63L83.61 0.219971Z" fill="#F9F1E7"/>
<path d="M96.6797 0.820007H96.7997C98.1897 0.820007 98.7596 1.23996 98.7596 2.26996V19.11C98.7596 20.14 98.1897 20.56 96.7997 20.56H96.6797V21.16H103.08V20.56H102.96C101.57 20.56 101 20.14 101 19.11V2.26996C101 1.23996 101.57 0.820007 102.96 0.820007H103.08V0.219971H96.6797V0.820007Z" fill="#F9F1E7"/>
<path d="M125.67 15.25C124.01 18.53 120.75 20.57 117.14 20.57C111.97 20.57 107.44 15.43 107.44 9.57001C107.44 4.59001 111.16 0.829956 116.08 0.829956C120.07 0.829956 123.6 3.35999 124.54 6.85999C123.91 7.00999 123.49 7.52997 123.49 8.15997C123.49 8.85997 124.14 9.44 124.94 9.44C125.74 9.44 126.39 8.74999 126.39 7.92999C126.39 3.77999 121.61 0 116.36 0C110.14 0 105.09 4.79996 105.09 10.71C105.09 16.62 110.12 21.42 116.31 21.42C120.74 21.42 124.46 19.37 126.53 15.81L126.59 15.71L125.74 15.14L125.68 15.27L125.67 15.25Z" fill="#F9F1E7"/>
<path d="M128.53 0.820007H128.65C130.04 0.820007 130.61 1.23996 130.61 2.26996V19.11C130.61 20.14 130.04 20.56 128.65 20.56H128.53V21.16H134.93V20.56H134.81C133.42 20.56 132.85 20.14 132.85 19.11V2.26996C132.85 1.23996 133.42 0.820007 134.81 0.820007H134.93V0.219971H128.53V0.820007Z" fill="#F9F1E7"/>
<path d="M136.54 0.219971L136.26 5.04999H136.91L137.07 1.88C137.12 1.17 137.54 0.820007 138.35 0.820007H141.16V19.11C141.16 20.14 140.59 20.56 139.2 20.56H139.08V21.16H145.48V20.56H145.36C143.97 20.56 143.4 20.14 143.4 19.11V0.820007H146.21C147.02 0.820007 147.44 1.17 147.48 1.88L147.65 5.06H148.3L148.02 0.22998H136.56L136.54 0.219971Z" fill="#F9F1E7"/>
<path d="M158.16 0.219971V0.820007H159.02C159.29 0.820007 159.47 0.87998 159.54 0.97998C159.6 1.06998 159.59 1.21999 159.51 1.42999L156.22 9.84998L153.09 1.75C152.97 1.44 152.96 1.22001 153.06 1.07001C153.17 0.900007 153.44 0.820007 153.85 0.820007H154.29V0.219971H148.41V0.820007H149.12C149.95 0.820007 150.5 1.16998 150.77 1.84998L154.54 11.23V19.11C154.54 20.1 154 20.56 152.84 20.56H152.72V21.16H158.6V20.56H158.48C157.32 20.56 156.78 20.1 156.78 19.11V10.6L160.34 1.51996C160.53 1.04996 160.88 0.820007 161.41 0.820007H162.46V0.219971H158.17H158.16Z" fill="#F9F1E7"/>
</svg>
