<svg width="177" height="22" viewBox="0 0 177 22" fill="none" xmlns="http://www.w3.org/2000/svg">
<path d="M20.58 15.26C18.92 18.54 15.6599 20.58 12.0499 20.58C6.87993 20.58 2.34998 15.44 2.34998 9.58002C2.34998 4.60002 6.06999 0.839966 10.99 0.839966C14.98 0.839966 18.51 3.37 19.45 6.87C18.82 7.02 18.4 7.53998 18.4 8.16998C18.4 8.86998 19.05 9.45001 19.85 9.45001C20.65 9.45001 21.2999 8.76 21.2999 7.94C21.2999 3.79 16.52 0.0100098 11.27 0.0100098C5.06002 0.0100098 0 4.80997 0 10.72C0 16.63 5.02997 21.43 11.22 21.43C15.65 21.43 19.3699 19.38 21.4399 15.82L21.5 15.72L20.65 15.15L20.59 15.28L20.58 15.26Z" fill="#F9F1E7"/>
<path d="M35.3303 0C28.7103 0 23.3203 4.80002 23.3203 10.71C23.3203 16.62 28.7103 21.42 35.3303 21.42C41.9503 21.42 47.3403 16.62 47.3403 10.71C47.3403 4.80002 41.9503 0 35.3303 0ZM44.9703 11.67C44.9703 16.75 41.2403 20.57 36.3003 20.57C30.6403 20.57 25.6803 15.5 25.6803 9.71002C25.6803 4.65002 29.4204 0.830017 34.3804 0.830017C40.0304 0.830017 44.9803 5.88997 44.9803 11.66L44.9703 11.67Z" fill="#F9F1E7"/>
<path d="M58.8704 0.830017H59.8103C60.3503 0.830017 60.6104 1.05997 60.6104 1.52997V16.37L52.3604 0.22998H49.2003V0.640015C49.2003 1.04001 49.5704 1.12001 49.9004 1.20001C50.1604 1.26001 50.4204 1.32002 50.5104 1.52002L50.8403 2.13V19.87C50.8403 20.34 50.5803 20.57 50.0403 20.57H49.0703V21.17H53.3604V20.57H52.4203C51.8803 20.57 51.6204 20.34 51.6204 19.87V3.64001L60.6304 21.1L60.6703 21.17H61.4004V1.52997C61.4004 1.05997 61.6603 0.830017 62.2003 0.830017H63.1703V0.22998H58.8804V0.830017H58.8704Z" fill="#F9F1E7"/>
<path d="M74.5597 0.830017H75.4998C76.0398 0.830017 76.2997 1.05997 76.2997 1.52997V16.37L68.0497 0.22998H64.8898V0.640015C64.8898 1.04001 65.2597 1.12001 65.5897 1.20001C65.8497 1.26001 66.1097 1.32002 66.1997 1.52002L66.5298 2.13V19.87C66.5298 20.34 66.2697 20.57 65.7297 20.57H64.7598V21.17H69.0497V20.57H68.1097C67.5697 20.57 67.3097 20.34 67.3097 19.87V3.64001L76.3197 21.1L76.3597 21.17H77.0897V1.52997C77.0897 1.05997 77.3498 0.830017 77.8898 0.830017H78.8597V0.22998H74.5697V0.830017H74.5597Z" fill="#F9F1E7"/>
<path d="M90.5303 19.4C90.4803 20.2 90.0302 20.58 89.1202 20.58H86.4502C85.2902 20.58 84.7502 20.12 84.7502 19.13V9.46997H86.9502C87.5902 9.46997 87.8802 9.71998 87.8802 10.29V11.1H88.5303V7.25H87.8802V8.06C87.8802 8.62 87.5902 8.88 86.9502 8.88H84.7502V0.849976H88.8802C89.6802 0.849976 90.1002 1.19997 90.1302 1.90997L90.3202 5.08002H90.9702L90.6902 0.25H80.7002V0.849976H80.8202C81.9802 0.849976 82.5203 1.30999 82.5203 2.29999V19.14C82.5203 20.13 81.9802 20.59 80.8202 20.59H80.7002V21.19H91.0902L91.3702 15.53H90.7202L90.5303 19.41V19.4Z" fill="#F9F1E7"/>
<path d="M113.16 15.26C111.5 18.54 108.24 20.58 104.63 20.58C99.4601 20.58 94.9301 15.44 94.9301 9.58002C94.9301 4.60002 98.6501 0.839966 103.57 0.839966C107.56 0.839966 111.09 3.37 112.03 6.87C111.4 7.02 110.98 7.53998 110.98 8.16998C110.98 8.86998 111.63 9.45001 112.43 9.45001C113.23 9.45001 113.88 8.76 113.88 7.94C113.88 3.79 109.1 0.0100098 103.85 0.0100098C97.6401 0.0100098 92.5801 4.80997 92.5801 10.72C92.5801 16.63 97.61 21.43 103.8 21.43C108.23 21.43 111.95 19.38 114.02 15.82L114.08 15.72L113.23 15.15L113.17 15.28L113.16 15.26Z" fill="#F9F1E7"/>
<path d="M114.97 0.22998L114.69 5.06H115.34L115.5 1.89001C115.55 1.18001 115.971 0.830017 116.781 0.830017H119.59V19.12C119.59 20.15 119.02 20.57 117.63 20.57H117.51V21.17H123.91V20.57H123.79C122.4 20.57 121.83 20.15 121.83 19.12V0.830017H124.641C125.451 0.830017 125.87 1.18001 125.91 1.89001L126.08 5.07001H126.73L126.45 0.23999H114.99L114.97 0.22998Z" fill="#F9F1E7"/>
<path d="M128.04 0.830017H128.16C129.55 0.830017 130.12 1.24997 130.12 2.27997V19.12C130.12 20.15 129.55 20.57 128.16 20.57H128.04V21.17H134.44V20.57H134.32C132.93 20.57 132.36 20.15 132.36 19.12V2.27997C132.36 1.24997 132.93 0.830017 134.32 0.830017H134.44V0.22998H128.04V0.830017Z" fill="#F9F1E7"/>
<path d="M148.45 0C141.83 0 136.44 4.80002 136.44 10.71C136.44 16.62 141.83 21.42 148.45 21.42C155.07 21.42 160.46 16.62 160.46 10.71C160.46 4.80002 155.07 0 148.45 0ZM158.1 11.67C158.1 16.75 154.37 20.57 149.43 20.57C143.77 20.57 138.81 15.5 138.81 9.71002C138.81 4.65002 142.55 0.830017 147.51 0.830017C153.16 0.830017 158.11 5.88997 158.11 11.66L158.1 11.67Z" fill="#F9F1E7"/>
<path d="M171.99 0.22998V0.830017H172.93C173.47 0.830017 173.73 1.05997 173.73 1.52997V16.37L165.48 0.22998H162.32V0.640015C162.32 1.04001 162.691 1.12001 163.021 1.20001C163.281 1.26001 163.54 1.32002 163.63 1.52002L163.96 2.13V19.87C163.96 20.34 163.7 20.57 163.16 20.57H162.19V21.17H166.48V20.57H165.54C165 20.57 164.74 20.34 164.74 19.87V3.64001L173.75 21.1L173.79 21.17H174.521V1.52997C174.521 1.05997 174.78 0.830017 175.32 0.830017H176.29V0.22998H172H171.99Z" fill="#F9F1E7"/>
</svg>
