<svg width="117" height="22" viewBox="0 0 117 22" fill="none" xmlns="http://www.w3.org/2000/svg">
<path d="M20.5801 15.27C18.9201 18.55 15.66 20.59 12.05 20.59C6.88005 20.59 2.34998 15.45 2.34998 9.59003C2.34998 4.61003 6.06999 0.849976 10.99 0.849976C14.98 0.849976 18.5101 3.38 19.4501 6.88C18.8201 7.03 18.4 7.54999 18.4 8.17999C18.4 8.87999 19.05 9.46002 19.85 9.46002C20.65 9.46002 21.3 8.77001 21.3 7.95001C21.3 3.80001 16.52 0.0200195 11.27 0.0200195C5.06002 0.0200195 0 4.81998 0 10.73C0 16.64 5.03009 21.44 11.2201 21.44C15.6501 21.44 19.3701 19.39 21.4401 15.83L21.5 15.73L20.65 15.16L20.5901 15.29L20.5801 15.27Z" fill="#F9F1E7"/>
<path d="M35.3303 0.0100098C28.7103 0.0100098 23.3203 4.81003 23.3203 10.72C23.3203 16.63 28.7103 21.43 35.3303 21.43C41.9503 21.43 47.3403 16.63 47.3403 10.72C47.3403 4.81003 41.9503 0.0100098 35.3303 0.0100098ZM44.9802 11.68C44.9802 16.76 41.2503 20.58 36.3103 20.58C30.6503 20.58 25.6903 15.51 25.6903 9.72003C25.6903 4.66003 29.4303 0.840027 34.3903 0.840027C40.0403 0.840027 44.9902 5.89998 44.9902 11.67L44.9802 11.68Z" fill="#F9F1E7"/>
<path d="M58.8702 0.840027H59.8103C60.3503 0.840027 60.6102 1.06998 60.6102 1.53998V16.38L52.3602 0.23999H49.2003V0.650024C49.2003 1.05002 49.5703 1.13002 49.9003 1.21002C50.1603 1.27002 50.4203 1.33003 50.5103 1.53003L50.8403 2.14001V19.88C50.8403 20.35 50.5803 20.58 50.0403 20.58H49.0703V21.18H53.3602V20.58H52.4203C51.8803 20.58 51.6202 20.35 51.6202 19.88V3.65002L60.6302 21.11L60.6703 21.18H61.4003V1.53998C61.4003 1.06998 61.6603 0.840027 62.2003 0.840027H63.1703V0.23999H58.8802V0.840027H58.8702Z" fill="#F9F1E7"/>
<path d="M70.8501 8.58002C69.0001 7.00002 67.2601 5.51 67.2601 3.75C67.2601 2.15 68.6501 0.840027 70.3601 0.840027C72.4401 0.840027 74.0101 2.61001 74.0101 4.95001V5.07001H74.6602V0.23999H74.0101V0.950012C74.0101 1.30001 73.9601 1.29999 73.9001 1.29999C73.7501 1.29999 73.5002 1.16999 73.1802 0.98999C72.4402 0.59999 71.3302 0 69.6702 0C66.9002 0 64.9001 1.61999 64.9001 3.85999C64.9001 6.09999 66.7601 7.64 68.7401 9.37C71.0001 11.34 73.3302 13.38 73.3302 16.44C73.3302 18.91 71.7401 20.57 69.3601 20.57C66.8001 20.57 65.3901 18.65 65.3901 15.17V15.05H64.7501L64.3701 21.05V21.18H65.0001L65.1201 20.13C65.1801 19.63 65.2601 19.63 65.2601 19.63C65.3401 19.63 65.5401 19.79 65.7401 19.94C66.4001 20.45 67.6202 21.41 69.6802 21.41C73.2802 21.41 75.7002 19.2 75.7002 15.9C75.7002 12.6 73.1301 10.51 70.8701 8.57001L70.8501 8.58002Z" fill="#F9F1E7"/>
<path d="M86.9697 19.41C86.9197 20.21 86.4697 20.59 85.5597 20.59H82.8896C81.7296 20.59 81.1897 20.13 81.1897 19.14V9.47998H83.3896C84.0296 9.47998 84.3197 9.72999 84.3197 10.3V11.11H84.9697V7.26001H84.3197V8.07001C84.3197 8.63001 84.0296 8.89001 83.3896 8.89001H81.1897V0.859985H85.3197C86.1297 0.859985 86.5497 1.20998 86.5697 1.91998L86.7596 5.09003H87.4097L87.1296 0.26001H77.1396V0.859985H77.2596C78.4196 0.859985 78.9597 1.32 78.9597 2.31V19.15C78.9597 20.14 78.4196 20.6 77.2596 20.6H77.1396V21.2H87.5297L87.8097 15.54H87.1597L86.9697 19.42V19.41Z" fill="#F9F1E7"/>
<path d="M98.9299 0.840027H99.8699C100.41 0.840027 100.67 1.06998 100.67 1.53998V16.38L92.4199 0.23999H89.2599V0.650024C89.2599 1.05002 89.63 1.13002 89.96 1.21002C90.21 1.27002 90.4799 1.33003 90.5699 1.53003L90.8999 2.14001V19.88C90.8999 20.35 90.6399 20.58 90.0999 20.58H89.1299V21.18H93.4199V20.58H92.4799C91.9399 20.58 91.6799 20.35 91.6799 19.88V3.65002L100.69 21.11L100.73 21.18H101.46V1.53998C101.46 1.06998 101.72 0.840027 102.26 0.840027H103.23V0.23999H98.9399V0.840027H98.9299Z" fill="#F9F1E7"/>
<path d="M116.03 0.23999H104.57L104.29 5.07001H104.94L105.1 1.90002C105.15 1.19002 105.57 0.840027 106.38 0.840027H109.19V19.13C109.19 20.16 108.62 20.58 107.23 20.58H107.11V21.18H113.51V20.58H113.39C112 20.58 111.43 20.16 111.43 19.13V0.840027H114.24C115.05 0.840027 115.47 1.19002 115.51 1.90002L115.68 5.08002H116.33L116.05 0.25L116.03 0.23999Z" fill="#F9F1E7"/>
</svg>
