<svg width="112" height="22" viewBox="0 0 112 22" fill="none" xmlns="http://www.w3.org/2000/svg">
<path d="M0 0.22998V0.830017H0.119995C1.28 0.830017 1.82007 1.28997 1.82007 2.27997V19.12C1.82007 20.11 1.28 20.57 0.119995 20.57H0V21.17H5.88V20.57H5.76001C4.60001 20.57 4.06006 20.11 4.06006 19.12V10.17H6.26001C6.90001 10.17 7.19006 10.42 7.19006 10.99V11.8H7.83997V7.95001H7.19006V8.76001C7.19006 9.32001 6.90001 9.58002 6.26001 9.58002H4.06006V0.849976H8.19006C9.01006 0.849976 9.42006 1.19997 9.44006 1.90997L9.62 4.96997V5.08997H10.27L9.98999 0.26001H0V0.22998Z" fill="#F9F1E7"/>
<path d="M24.6404 19.87C24.3104 20.34 23.7603 20.69 23.3403 20.69C23.1603 20.69 23.0104 20.63 22.8904 20.5C22.6904 20.28 22.4904 19.74 22.6404 18.43L23.3004 12.79C23.4704 11.41 23.2304 10.31 22.5604 9.52997C22.0404 8.91997 21.2704 8.53 20.3104 8.38C22.0604 7.76 23.6504 6.40002 23.6504 4.52002C23.6504 1.87002 20.6004 0.22998 17.7704 0.22998H11.8604V0.830017H11.9803C13.1403 0.830017 13.6804 1.28997 13.6804 2.27997V19.12C13.6804 20.11 13.1403 20.57 11.9803 20.57H11.8604V21.17H17.7404V20.57H17.6204C16.4604 20.57 15.9204 20.11 15.9204 19.12V8.90002H18.4404C19.3504 8.90002 20.1204 9.20997 20.6204 9.77997C21.1104 10.34 21.3103 11.12 21.2003 12.03L20.4603 18.03C20.3303 19.15 20.5404 20.06 21.0604 20.65C21.5004 21.15 22.1703 21.41 22.9803 21.41C23.9003 21.41 24.6203 21.08 25.2103 20.38L25.2904 20.29L24.7303 19.76L24.6504 19.88L24.6404 19.87ZM21.2904 4.94C21.2904 6.85 19.7204 8.29999 17.6404 8.29999H15.9204V0.839966H16.8004C19.2404 0.839966 21.3004 2.72001 21.3004 4.95001L21.2904 4.94Z" fill="#F9F1E7"/>
<path d="M35.9999 19.4C35.9499 20.2 35.4998 20.58 34.5898 20.58H31.9199C30.7599 20.58 30.2198 20.12 30.2198 19.13V9.46997H32.4199C33.0599 9.46997 33.3499 9.71998 33.3499 10.29V11.1H33.9999V7.25H33.3499V8.06C33.3499 8.62 33.0599 8.88 32.4199 8.88H30.2198V0.849976H34.3499C35.1499 0.849976 35.5799 1.19997 35.5999 1.90997L35.7899 5.08002H36.4399L36.1599 0.25H26.1699V0.849976H26.2899C27.4499 0.849976 27.9899 1.30999 27.9899 2.29999V19.14C27.9899 20.13 27.4499 20.59 26.2899 20.59H26.1699V21.19H36.5599L36.8298 15.66V15.53H36.1899L35.9999 19.41V19.4Z" fill="#F9F1E7"/>
<path d="M48.2596 19.4C48.2096 20.2 47.7596 20.58 46.8496 20.58H44.1797C43.0197 20.58 42.4796 20.12 42.4796 19.13V9.46997H44.6797C45.3197 9.46997 45.6096 9.71998 45.6096 10.29V11.1H46.2596V7.25H45.6096V8.06C45.6096 8.62 45.3197 8.88 44.6797 8.88H42.4796V0.849976H46.6096C47.4096 0.849976 47.8396 1.19997 47.8596 1.90997L48.0497 5.08002H48.6996L48.4197 0.25H38.4297V0.849976H38.5497C39.7097 0.849976 40.2496 1.30999 40.2496 2.29999V19.14C40.2496 20.13 39.7097 20.59 38.5497 20.59H38.4297V21.19H48.8197L49.0896 15.66V15.53H48.4496L48.2596 19.41V19.4Z" fill="#F9F1E7"/>
<path d="M55.6396 0.22998H50.6797V0.830017H50.7997C51.9597 0.830017 52.4996 1.28997 52.4996 2.27997V19.12C52.4996 20.11 51.9597 20.57 50.7997 20.57H50.6797V21.17H55.6396C61.3396 21.17 65.7997 16.57 65.7997 10.7C65.7997 4.83001 61.4296 0.22998 55.6396 0.22998ZM54.7396 19.12V0.830017H54.7997C59.5697 0.830017 63.4397 5.68997 63.4397 11.66C63.4397 16.99 60.6197 20.56 56.4297 20.56C55.2697 20.56 54.7296 20.1 54.7296 19.11L54.7396 19.12Z" fill="#F9F1E7"/>
<path d="M79.6799 0C73.0599 0 67.6699 4.80002 67.6699 10.71C67.6699 16.62 73.0599 21.42 79.6799 21.42C86.2999 21.42 91.6899 16.62 91.6899 10.71C91.6899 4.80002 86.2999 0 79.6799 0ZM89.3298 11.67C89.3298 16.75 85.5999 20.57 80.6599 20.57C74.9999 20.57 70.0399 15.5 70.0399 9.71002C70.0399 4.65002 73.7799 0.830017 78.7399 0.830017C84.3899 0.830017 89.3398 5.88997 89.3398 11.66L89.3298 11.67Z" fill="#F9F1E7"/>
<path d="M111.11 0.830017H111.23V0.22998H107.21L102.29 17.2L97.5798 0.22998H93.4199V0.830017H94.3899C94.9299 0.830017 95.1899 1.05997 95.1899 1.52997V20.57H93.4199V21.17H97.7098V20.57H95.9698V3.14001L101.19 21.09L101.22 21.18H101.88L107.18 3.04999V19.13C107.18 20.12 106.64 20.58 105.48 20.58H105.36V21.18H111.24V20.58H111.12C109.96 20.58 109.42 20.12 109.42 19.13V2.28998C109.42 1.29998 109.96 0.839966 111.12 0.839966L111.11 0.830017Z" fill="#F9F1E7"/>
</svg>
