<svg width="127" height="22" viewBox="0 0 127 22" fill="none" xmlns="http://www.w3.org/2000/svg">
<path d="M6.47998 8.58002C4.62998 7.00002 2.89001 5.51 2.89001 3.75C2.89001 2.15 4.27999 0.840027 5.98999 0.840027C8.06999 0.840027 9.64001 2.61001 9.64001 4.95001V5.07001H10.29V0.23999H9.64001V0.950012C9.64001 1.30001 9.59003 1.29999 9.53003 1.29999C9.38003 1.29999 9.13006 1.16999 8.81006 0.98999C8.07006 0.59999 6.96005 0 5.30005 0C2.53005 0 0.530029 1.61999 0.530029 3.85999C0.530029 6.09999 2.39 7.64 4.37 9.37C6.63 11.34 8.95996 13.38 8.95996 16.44C8.95996 18.91 7.36999 20.57 4.98999 20.57C2.42999 20.57 1.02002 18.65 1.02002 15.17V15.05H0.380005L0 21.05V21.18H0.630005L0.75 20.13C0.81 19.63 0.890015 19.63 0.890015 19.63C0.960015 19.63 1.17 19.79 1.37 19.94C2.03 20.45 3.25006 21.41 5.31006 21.41C8.91006 21.41 11.33 19.2 11.33 15.9C11.33 12.6 8.76 10.51 6.5 8.57001L6.47998 8.58002Z" fill="#F9F1E7"/>
<path d="M25.77 0.23999V0.840027H25.89C27.05 0.840027 27.59 1.29998 27.59 2.28998V19.13C27.59 20.12 27.05 20.58 25.89 20.58H25.4401C24.6001 20.58 24.1201 20.24 23.9501 19.52L19.36 0.23999H15.52V0.840027H15.99C16.83 0.840027 17.31 1.18002 17.48 1.90002L17.58 2.28998L13.36 19.88C13.27 20.35 12.95 20.58 12.4 20.58H11.46V21.18H16.09V20.58H14.88C14.6 20.58 14.4201 20.52 14.3201 20.41C14.2401 20.31 14.22 20.15 14.26 19.93L16.3201 11.33H19.71L21.67 19.58C21.75 19.91 21.72 20.15 21.6 20.31C21.46 20.49 21.18 20.58 20.76 20.58H20.21V21.18H31.63V20.58H31.51C30.35 20.58 29.8101 20.12 29.8101 19.13V10.18H32.01C32.65 10.18 32.9401 10.43 32.9401 11V11.81H33.59V7.96002H32.9401V8.77002C32.9401 9.33002 32.65 9.59003 32.01 9.59003H29.8101V0.859985H33.9401C34.7601 0.859985 35.1701 1.20998 35.1901 1.91998L35.38 5.09003H36.03L35.75 0.26001H25.76L25.77 0.23999ZM19.58 10.73H16.46L18.02 4.22003L19.58 10.73Z" fill="#F9F1E7"/>
<path d="M47.4598 19.41C47.4098 20.21 46.9599 20.59 46.0499 20.59H43.3799C42.2199 20.59 41.6799 20.13 41.6799 19.14V9.47998H43.8799C44.5199 9.47998 44.8099 9.72999 44.8099 10.3V11.11H45.4598V7.26001H44.8099V8.07001C44.8099 8.63001 44.5199 8.89001 43.8799 8.89001H41.6799V0.859985H45.8099C46.6099 0.859985 47.0299 1.20998 47.0599 1.91998L47.2499 5.09003H47.8999L47.6199 0.26001H37.6299V0.859985H37.7499C38.9099 0.859985 39.45 1.32 39.45 2.31V19.15C39.45 20.14 38.9099 20.6 37.7499 20.6H37.6299V21.2H48.0199L48.2999 15.54H47.6499L47.4598 19.42V19.41Z" fill="#F9F1E7"/>
<path d="M62.5503 8.58002C60.7003 7.00002 58.9602 5.51 58.9602 3.75C58.9602 2.15 60.3503 0.840027 62.0603 0.840027C64.1403 0.840027 65.7102 2.61001 65.7102 4.95001V5.07001H66.3602V0.23999H65.7102V0.950012C65.7102 1.30001 65.6602 1.29999 65.6002 1.29999C65.4502 1.29999 65.2002 1.16999 64.8802 0.98999C64.1402 0.59999 63.0302 0 61.3702 0C58.6002 0 56.6002 1.61999 56.6002 3.85999C56.6002 6.09999 58.4603 7.64 60.4403 9.37C62.7003 11.34 65.0303 13.38 65.0303 16.44C65.0303 18.91 63.4403 20.57 61.0603 20.57C58.5003 20.57 57.0902 18.65 57.0902 15.17V15.05H56.4503L56.0703 21.05V21.18H56.7003L56.8203 20.13C56.8803 19.63 56.9602 19.63 56.9602 19.63C57.0402 19.63 57.2403 19.79 57.4403 19.94C58.1003 20.45 59.3202 21.41 61.3802 21.41C64.9802 21.41 67.4003 19.2 67.4003 15.9C67.4003 12.6 64.8303 10.51 62.5703 8.57001L62.5503 8.58002Z" fill="#F9F1E7"/>
<path d="M72.8997 19.13V9.47003H74.7596C77.9996 9.47003 80.6396 7.39998 80.6396 4.84998C80.6396 2.29998 77.9996 0.22998 74.7596 0.22998H68.8496V0.830017H68.9696C70.1296 0.830017 70.6697 1.29003 70.6697 2.28003V19.12C70.6697 20.11 70.1296 20.57 68.9696 20.57H68.8496V21.17H74.9896V20.57H74.8696C73.4796 20.57 72.9097 20.15 72.9097 19.12L72.8997 19.13ZM72.8997 8.87V0.840027H73.7797C76.2197 0.840027 78.2797 2.87003 78.2797 5.28003C78.2797 7.33003 76.7096 8.87 74.6296 8.87H72.9097H72.8997Z" fill="#F9F1E7"/>
<path d="M91.0398 19.53L86.4498 0.25H82.6097V0.849976H83.0797C83.9197 0.849976 84.3998 1.19003 84.5698 1.91003L84.6698 2.29999L80.4498 19.89C80.3598 20.36 80.0397 20.59 79.4897 20.59H78.5498V21.19H83.1798V20.59H81.9697C81.6897 20.59 81.5098 20.53 81.4098 20.42C81.3298 20.32 81.3097 20.16 81.3497 19.94L83.4098 11.34H86.7998L88.7598 19.59C88.8398 19.92 88.8098 20.16 88.6898 20.32C88.5498 20.5 88.2697 20.59 87.8497 20.59H87.2998V21.19H93.2297V20.59H92.5198C91.6798 20.59 91.1998 20.25 91.0298 19.53H91.0398ZM86.6698 10.73H83.5498L85.1097 4.22003L86.6698 10.73Z" fill="#F9F1E7"/>
<path d="M113.32 15.27C111.66 18.55 108.4 20.59 104.79 20.59C99.6203 20.59 95.0902 15.45 95.0902 9.59003C95.0902 4.61003 98.8102 0.849976 103.73 0.849976C107.72 0.849976 111.25 3.38 112.19 6.88C111.56 7.03 111.14 7.54999 111.14 8.17999C111.14 8.87999 111.79 9.46002 112.59 9.46002C113.39 9.46002 114.04 8.77001 114.04 7.95001C114.04 3.80001 109.26 0.0200195 104.01 0.0200195C97.8003 0.0200195 92.7402 4.81998 92.7402 10.73C92.7402 16.64 97.7702 21.44 103.96 21.44C108.39 21.44 112.11 19.39 114.18 15.83L114.24 15.73L113.39 15.16L113.33 15.29L113.32 15.27Z" fill="#F9F1E7"/>
<path d="M126.2 15.53L126.01 19.41C125.96 20.21 125.51 20.59 124.6 20.59H121.93C120.77 20.59 120.23 20.13 120.23 19.14V9.47998H122.43C123.07 9.47998 123.36 9.72999 123.36 10.3V11.11H124.01V7.26001H123.36V8.07001C123.36 8.63001 123.07 8.89001 122.43 8.89001H120.23V0.859985H124.36C125.16 0.859985 125.58 1.20998 125.61 1.91998L125.8 5.09003H126.45L126.17 0.26001H116.18V0.859985H116.3C117.46 0.859985 118 1.32 118 2.31V19.15C118 20.14 117.46 20.6 116.3 20.6H116.18V21.2H126.57L126.85 15.54H126.2V15.53Z" fill="#F9F1E7"/>
</svg>
