<svg width="36" height="11" viewBox="0 0 36 11" fill="none" xmlns="http://www.w3.org/2000/svg">
<path d="M35.49 4.47998H7.54004V5.62H35.49V4.47998Z" fill="black"/>
<path d="M1.77002 4.73999C5.22002 3.49999 8.69015 2.34 12.1501 1.12C13.0801 0.789995 14.0002 0.39 14.9102 0C15.1302 0.04 15.45 0.100005 15.3 0.380005C15.08 0.510005 8.90015 5.14001 8.90015 5.14001L13.0701 8.27002C13.7701 8.87002 14.4999 9.43005 15.1799 10.05L15.25 10.48C15.04 10.49 14.9701 10.5301 14.9001 10.3201L14.8601 10.48H14.74L0 5.39001C0 5.19001 1.49 4.82998 1.75 4.72998L1.77002 4.73999Z" fill="black"/>
</svg>
