<svg width="36" height="11" viewBox="0 0 36 11" fill="none" xmlns="http://www.w3.org/2000/svg">
<path d="M27.95 4.47998H0V5.62H27.95V4.47998Z" fill="black"/>
<path d="M33.7298 4.73999C30.2798 3.49999 26.8099 2.34 23.3499 1.12C22.4199 0.789995 21.4999 0.39 20.5899 0C20.3699 0.04 20.0498 0.100005 20.1998 0.380005C20.4198 0.510005 26.5999 5.14001 26.5999 5.14001L22.4297 8.27002C21.7297 8.87002 20.9999 9.43005 20.3199 10.05L20.2498 10.48C20.4598 10.49 20.5299 10.5301 20.5999 10.3201L20.6399 10.48H20.7598L35.4998 5.39001C35.4998 5.19001 34.0098 4.82998 33.7498 4.72998L33.7298 4.73999Z" fill="black"/>
</svg>
