<svg width="304" height="50" viewBox="0 0 304 50" fill="none" xmlns="http://www.w3.org/2000/svg">
<path d="M0 25C0 11.17 12.6001 0.0100098 28.0601 0.0100098C43.5201 0.0100098 56.12 11.17 56.12 25C56.12 38.83 43.5201 49.99 28.0601 49.99C12.6001 49.99 0 38.77 0 25ZM51.14 27.27C51.14 13.5 39.3499 1.39001 25.8199 1.39001C13.9699 1.39001 4.98999 10.5499 4.98999 22.6599C4.98999 36.4299 16.84 48.59 30.37 48.59C42.22 48.59 51.14 39.37 51.14 27.27Z" fill="#88181A"/>
<path d="M84.4396 39.99C84.4396 46.65 81.1995 49.98 74.7095 49.98C68.2195 49.98 63.8595 46.32 63.8595 40.26V4.44995C63.8595 2.33995 62.4896 1.40002 59.5596 1.40002V0.569946H72.8395V1.40002C69.9095 1.40002 68.5396 2.46001 68.5396 4.51001V40.5499C68.5396 45.8299 70.9095 48.6 75.4595 48.6C80.2595 48.6 83.1896 45.5499 83.1896 40.5499V3.34998C83.1896 2.06998 82.4395 1.40991 81.0095 1.40991H78.8895V0.579956H88.7395V1.40991H86.6195C85.1895 1.40991 84.4396 2.07998 84.4396 3.34998V40V39.99Z" fill="#88181A"/>
<path d="M118.68 48.87C119.8 48.87 121.17 47.9799 121.99 46.8199L122.86 47.65C121.49 49.26 119.87 49.98 117.81 49.98C113.69 49.98 111.57 47.0899 112.14 42.3199L113.89 28.1599C114.51 23.3299 111.4 20.4399 107.09 20.4399H100.85V44.87C100.85 47.42 102.35 48.59 105.15 48.59V49.4199H91.8701V48.59C94.6801 48.59 96.1702 47.42 96.1702 44.87V5.10999C96.1702 2.55999 94.6701 1.39001 91.8701 1.39001V0.559937H105.53C111.77 0.559937 119.12 4.17001 119.12 10.39C119.12 15 114.82 18.4399 110.02 19.6599C115.88 19.8799 119.12 23.44 118.31 29.88L116.75 43.21C116.31 46.93 117 48.87 118.68 48.87ZM105.21 19.61C110.45 19.61 114.13 15.95 114.13 11.39C114.13 6.06001 109.27 1.39001 103.22 1.39001H100.85V19.6H105.22L105.21 19.61Z" fill="#88181A"/>
<path d="M163.45 3.28992L152.66 49.4299H151.54L140.56 4.12C140.12 2.29 138.88 1.40002 136.82 1.40002H135.57V0.569946H148.85V1.40002H147.98C145.92 1.40002 145.05 2.29 145.49 4.12L153.78 39.6599L162.2 3.28992C162.51 2.00992 161.89 1.40002 160.45 1.40002H158.58V0.569946H168.12V1.40002H166.06C164.63 1.40002 163.75 2.00992 163.44 3.28992H163.45Z" fill="#88181A"/>
<path d="M168.44 48.6H171V49.4299H160.65V48.6H162.58C164.01 48.6 164.89 47.99 165.14 46.71L175.12 5.12L174.87 4.12C174.43 2.29 173.19 1.40002 171.07 1.40002H170.26V0.569946H178.8L189.59 45.88C190.03 47.71 191.27 48.6 193.39 48.6H194.76V49.4299H181.35V48.6H182.35C184.41 48.6 185.22 47.71 184.78 45.88L180.1 26.1699H171.62L166.69 46.71C166.44 47.99 167 48.6 168.44 48.6ZM171.81 25.33H179.92L175.87 8.39001L171.82 25.33H171.81Z" fill="#88181A"/>
<path d="M193.2 49.4299V48.6C196.13 48.6 197.5 47.38 197.5 44.88V5.12C197.5 2.62 196.13 1.40002 193.2 1.40002V0.569946H207.11V1.40002C203.56 1.40002 202.18 2.62 202.18 5.12V44.88C202.18 47.38 203.55 48.6 206.48 48.6H212.53C214.65 48.6 215.65 47.7099 215.77 45.8199L216.21 38.3199H217.15L216.53 49.4299H193.21H193.2Z" fill="#88181A"/>
<path d="M243.28 39.99C243.28 46.65 240.04 49.98 233.55 49.98C227.06 49.98 222.7 46.32 222.7 40.26V4.44995C222.7 2.33995 221.33 1.40002 218.4 1.40002V0.569946H231.68V1.40002C228.75 1.40002 227.38 2.46001 227.38 4.51001V40.5499C227.38 45.8299 229.75 48.6 234.3 48.6C239.1 48.6 242.03 45.5499 242.03 40.5499V3.34998C242.03 2.06998 241.28 1.40991 239.85 1.40991H237.73V0.579956H247.58V1.40991H245.46C244.03 1.40991 243.28 2.07998 243.28 3.34998V40V39.99Z" fill="#88181A"/>
<path d="M269.72 1.40002H259.68V20.95H265.17C266.85 20.95 267.66 20.23 267.66 18.73V17.12H268.6V25.62H267.66V24.01C267.66 22.51 266.85 21.7899 265.17 21.7899H259.68V44.89C259.68 47.39 261.05 48.61 263.98 48.61H270.28C272.59 48.61 273.77 47.6099 273.9 45.5599L274.34 36.6799H275.28L274.66 49.45H250.71V48.62C253.64 48.62 255.01 47.4 255.01 44.9V5.14001C255.01 2.64001 253.64 1.41992 250.71 1.41992V0.589966H273.72L274.34 11.4199H273.4L272.96 4.19995C272.9 2.36995 271.78 1.41992 269.72 1.41992V1.40002Z" fill="#88181A"/>
<path d="M279.57 45.76C279.26 45.76 279.07 46.15 278.95 47.2L278.7 49.4199H277.76L278.63 35.5399H279.57C279.57 43.9799 283 48.59 289.24 48.59C294.98 48.59 298.91 44.5399 298.91 38.5399C298.91 24.7099 279.02 19.44 279.02 8.82996C279.02 3.71996 283.57 0 290 0C295.67 0 298.67 3.04993 299.98 3.04993C300.42 3.04993 300.54 2.76994 300.54 1.93994V0.549927H301.48V11.38H300.54C300.54 5.72001 296.67 1.38 291.62 1.38C287.44 1.38 284.01 4.54992 284.01 8.53992C284.01 17.9799 303.9 23.64 303.9 37.25C303.9 45.02 298.16 49.96 289.99 49.96C283.38 49.96 280.57 45.74 279.58 45.74L279.57 45.76Z" fill="#88181A"/>
</svg>
