<svg width="36" height="11" viewBox="0 0 36 11" fill="none" xmlns="http://www.w3.org/2000/svg">
<path d="M33.72 4.73999C30.27 3.49999 26.8 2.34 23.34 1.12C22.41 0.789995 21.49 0.39 20.58 0C20.36 0.04 20.0399 0.100005 20.1899 0.380005C20.3599 0.480005 23.98 3.18998 25.7 4.47998H0V5.62H25.96L22.4199 8.27002C21.7199 8.87002 20.9899 9.43005 20.3099 10.05L20.24 10.48C20.45 10.49 20.52 10.5301 20.59 10.3201L20.6299 10.48H20.75L35.49 5.39001C35.49 5.19001 34 4.82998 33.74 4.72998L33.72 4.73999Z" fill="#88181A"/>
</svg>
