<svg width="36" height="11" viewBox="0 0 36 11" fill="none" xmlns="http://www.w3.org/2000/svg">
<path d="M15.28 0.380005C15.43 0.100005 15.11 0.04 14.89 0C13.98 0.39 13.06 0.789995 12.13 1.12C8.67 2.34 5.2 3.49999 1.75 4.73999C1.49 4.82999 0 5.19002 0 5.40002L14.74 10.49H14.86L14.9 10.33C14.97 10.53 15.04 10.5 15.25 10.49L15.1801 10.0601C14.5001 9.44006 13.7599 8.88003 13.0699 8.28003L9.53003 5.63H35.49V4.48999H9.79004C11.5 3.20999 15.13 0.490015 15.3 0.390015L15.28 0.380005Z" fill="#88181A"/>
</svg>
