<svg width="547" height="66" viewBox="0 0 547 66" fill="none" xmlns="http://www.w3.org/2000/svg">
<path d="M30.74 53.4999C30.74 61.7299 26.74 65.8399 18.72 65.8399C10.7 65.8399 5.32001 61.3099 5.32001 53.8399V9.60992C5.32001 6.99992 3.62 5.83994 0 5.83994V4.80994H16.41V5.83994C12.79 5.83994 11.09 7.13993 11.09 9.67993V54.1799C11.09 60.6899 14.02 64.1199 19.64 64.1199C25.57 64.1199 29.19 60.3499 29.19 54.1799V8.23993C29.19 6.65993 28.27 5.83994 26.49 5.83994H23.87V4.80994H36.04V5.83994H33.42C31.65 5.83994 30.72 6.65993 30.72 8.23993V53.4999H30.74Z" fill="#FAF1E6"/>
<path d="M44.2896 61.7299V9.88995L43.2896 8.03995C42.5996 6.52995 39.5197 7.28995 39.5197 5.63995V4.81995H48.1497L72.7996 53.03V8.24997C72.7996 6.66997 71.8797 5.84995 70.0997 5.84995H67.7097V4.81995H79.4996V5.84995H77.0397C75.2697 5.84995 74.3397 6.66997 74.3397 8.24997V65.17H72.7996L45.8397 12.92V61.74C45.8397 63.32 46.7597 64.14 48.5397 64.14H50.9296V65.17H39.1396V64.14H41.5996C43.3696 64.14 44.2997 63.32 44.2997 61.74L44.2896 61.7299Z" fill="#FAF1E6"/>
<path d="M84.1201 65.1599V64.1299C87.7401 64.1299 89.4301 62.6199 89.4301 59.5399V10.4399C89.4301 7.35994 87.7401 5.84995 84.1201 5.84995V4.81995H101.3V5.84995C96.9101 5.84995 95.2202 7.35994 95.2202 10.4399V59.5399C95.2202 62.6299 96.9102 64.1299 100.53 64.1299H108C110.62 64.1299 111.85 63.03 112 60.7L112.54 51.4399H113.7L112.93 65.15H84.1201V65.1599Z" fill="#FAF1E6"/>
<path d="M119.01 60.63C118.63 60.63 118.39 61.11 118.24 62.41L117.93 65.15H116.771L117.851 48.01H119.01C119.01 58.43 123.251 64.13 130.951 64.13C138.041 64.13 142.891 59.12 142.891 51.72C142.891 34.65 118.32 28.13 118.32 15.03C118.32 8.72003 123.94 4.13 131.88 4.13C138.89 4.13 142.591 7.90002 144.201 7.90002C144.741 7.90002 144.891 7.56003 144.891 6.53003V4.82001H146.05V18.19H144.891C144.891 11.2 140.11 5.85001 133.88 5.85001C128.72 5.85001 124.481 9.76001 124.481 14.7C124.481 26.36 149.05 33.35 149.05 50.15C149.05 59.75 141.96 65.85 131.87 65.85C123.71 65.85 120.24 60.64 119.01 60.64V60.63Z" fill="#FAF1E6"/>
<path d="M163.61 10.4299V29.9699H181.71V10.4299C181.71 7.34993 180.02 5.83994 176.4 5.83994V4.80994H192.81V5.83994C189.19 5.83994 187.5 7.34993 187.5 10.4299V59.5299C187.5 62.6199 189.19 64.1199 192.81 64.1199V65.1499H176.4V64.1199C180.02 64.1199 181.71 62.6099 181.71 59.5299V30.9999H163.61V59.5299C163.61 62.6199 165.3 64.1199 168.92 64.1199V65.1499H152.51V64.1199C156.13 64.1199 157.82 62.6099 157.82 59.5299V10.4299C157.82 7.34993 156.13 5.83994 152.51 5.83994V4.80994H168.92V5.83994C165.3 5.83994 163.61 7.34993 163.61 10.4299Z" fill="#FAF1E6"/>
<path d="M216.91 60.63C216.53 60.63 216.29 61.11 216.14 62.41L215.83 65.15H214.67L215.75 48.01H216.91C216.91 58.43 221.15 64.13 228.85 64.13C235.94 64.13 240.79 59.12 240.79 51.72C240.79 34.65 216.22 28.13 216.22 15.03C216.22 8.72003 221.84 4.13 229.78 4.13C236.79 4.13 240.49 7.90002 242.1 7.90002C242.64 7.90002 242.79 7.56003 242.79 6.53003V4.82001H243.95V18.19H242.79C242.79 11.2 238.01 5.85001 231.78 5.85001C226.62 5.85001 222.38 9.76001 222.38 14.7C222.38 26.36 246.95 33.35 246.95 50.15C246.95 59.75 239.86 65.85 229.77 65.85C221.61 65.85 218.14 60.64 216.91 60.64V60.63Z" fill="#FAF1E6"/>
<path d="M251.18 34.98C251.18 17.9 266.74 4.12 285.84 4.12C304.94 4.12 320.5 17.9 320.5 34.98C320.5 52.06 304.94 65.84 285.84 65.84C266.74 65.84 251.18 51.99 251.18 34.98ZM314.34 37.8C314.34 20.79 299.78 5.84 283.07 5.84C268.44 5.84 257.34 17.15 257.34 32.1C257.34 49.11 271.97 64.12 288.69 64.12C303.32 64.12 314.34 52.74 314.34 37.79V37.8Z" fill="#FAF1E6"/>
<path d="M357.63 4.13C372.65 4.13 386.51 15.03 386.51 26.9C386.51 29.09 384.74 30.95 382.66 30.95C380.58 30.95 378.81 29.44 378.81 27.59C378.81 25.74 380.12 24.37 381.97 24.09C379.35 13.53 368.88 5.85001 356.86 5.85001C342.3 5.85001 331.29 16.96 331.29 31.7C331.29 48.98 344.62 64.14 359.94 64.14C371.42 64.14 380.66 57.28 385.13 48.44L386.98 49.67C381.05 59.89 370.5 65.85 357.48 65.85C339.76 65.85 325.13 51.86 325.13 34.99C325.13 18.12 339.76 4.13 357.63 4.13Z" fill="#FAF1E6"/>
<path d="M403.85 59.5299C403.85 62.6199 405.54 64.1199 409.93 64.1199V65.1499H391.98V64.1199C396.37 64.1199 398.06 62.6099 398.06 59.5299V10.4299C398.06 7.34993 396.37 5.83994 391.98 5.83994V4.80994H409.93V5.83994C405.54 5.83994 403.85 7.34993 403.85 10.4299V59.5299Z" fill="#FAF1E6"/>
<path d="M438.82 5.83997H426.42V29.9799H433.2C435.28 29.9799 436.28 29.09 436.28 27.24V25.25H437.44V35.74H436.28V33.75C436.28 31.9 435.28 31.0099 433.2 31.0099H426.42V59.5399C426.42 62.6299 428.12 64.1299 431.74 64.1299H439.52C442.37 64.1299 443.83 62.9 443.99 60.36L444.53 49.39H445.69L444.92 65.1599H415.34V64.1299C418.96 64.1299 420.66 62.6199 420.66 59.5399V10.4399C420.66 7.35994 418.97 5.84995 415.34 5.84995V4.81995H443.76L444.53 18.1899H443.37L442.83 9.27997C442.75 7.01997 441.37 5.84995 438.82 5.84995V5.83997Z" fill="#FAF1E6"/>
<path d="M475.79 5.83994H467.24V59.5299C467.24 62.7499 469.09 64.1199 473.32 64.1199V65.1499H455.37V64.1199C459.61 64.1199 461.45 62.7499 461.45 59.5299V5.83994H452.9C450.36 5.83994 448.97 7.00993 448.82 9.26993L448.36 18.1799H447.2L447.97 4.80994H480.71L481.48 18.1799H480.32L479.86 9.26993C479.71 7.00993 478.32 5.83994 475.78 5.83994H475.79Z" fill="#FAF1E6"/>
<path d="M515.15 8.09991L504.75 34.6399V59.5299C504.75 62.6199 506.44 64.1199 510.06 64.1199V65.1499H493.65V64.1199C497.27 64.1199 498.96 62.6099 498.96 59.5299V36.4899L487.95 9.05994C487.1 6.92994 485.33 5.83994 482.79 5.83994H481.1V4.80994H497.51V5.83994H496.59C494.05 5.83994 493.2 6.93994 494.05 9.05994L503.52 33.5399L513.46 8.09991C514.08 6.58991 513.46 5.83994 511.69 5.83994H509.53V4.80994H521.32V5.83994H518.62C516.93 5.83994 515.77 6.58991 515.15 8.09991Z" fill="#FAF1E6"/>
<path d="M532.71 48.49C532.71 36.01 540.41 23.12 540.41 10.71C540.41 4.73999 537.71 1.37997 532.79 1.37997C528.63 1.37997 525.47 3.77999 524.93 7.20999C525.24 7.13999 525.55 7.06998 525.85 7.06998C527.54 7.06998 528.78 8.29999 528.78 9.73999C528.78 11.18 527.47 12.35 525.85 12.35C523.77 12.35 522.85 10.57 522.85 8.91998C522.85 3.49998 527.01 0 534.17 0C541.33 0 546.19 3.49997 546.19 11.38C546.19 23.11 534.25 36 534.25 48.48H532.71V48.49ZM528.7 61.52C528.7 59.19 530.93 57.27 533.63 57.27C536.33 57.27 538.33 59.19 538.33 61.52C538.33 63.85 536.25 65.84 533.63 65.84C531.01 65.84 528.7 63.92 528.7 61.52Z" fill="#FAF1E6"/>
</svg>
