<svg width="157" height="30" viewBox="0 0 157 30" fill="none" xmlns="http://www.w3.org/2000/svg">
<path d="M138.68 0.351669C138.69 1.11167 137.92 0.791672 137.41 0.901672C136.55 1.10167 135.82 1.53167 135.3 2.25167C135.19 2.41167 134.69 3.45167 134.69 3.54167V15.2017H145.79V3.19167C145.79 3.14167 145.44 2.37167 145.35 2.24167C144.66 1.20167 143.19 0.701669 141.97 0.851669V0.331665H156.88V0.851669C155.15 0.661669 153.41 1.59167 153.07 3.36167V25.8317C153.32 27.6817 155.11 28.6617 156.88 28.5017V29.0217H141.97V28.5017C143.15 28.5917 144.41 28.2217 145.17 27.2817C145.31 27.1117 145.79 26.3017 145.79 26.1717V15.7217H134.69V25.6617C135.02 27.0417 135.97 28.2017 137.41 28.4817C137.92 28.5817 138.69 28.2917 138.68 29.0317H123.6C123.59 28.2717 124.36 28.5917 124.87 28.4817C126.28 28.1617 127.27 27.2617 127.59 25.8317V3.71167C127.36 2.04167 126.34 1.18167 124.73 0.871666C124.28 0.781666 123.6 1.09167 123.61 0.341667H138.69L138.68 0.351669Z" fill="#FAF1E6"/>
<path d="M59.2699 18.3317V3.38169C59.2699 3.33169 58.97 2.49169 58.9 2.37169C58.59 1.82169 57.4699 1.09169 56.8499 0.961693C56.2799 0.841693 55.4399 1.09169 55.4599 0.361694H63.61V0.881691C62.42 0.751691 61.0999 1.29169 60.4099 2.27169C60.2999 2.43169 59.7999 3.47169 59.7999 3.56169V29.0517L59.1299 29.0317L37.9599 5.03169V26.0317C37.9599 26.1617 38.7199 27.5017 38.9099 27.6817C39.1799 27.9417 40.14 28.4117 40.51 28.5117C40.85 28.6017 41.13 28.5117 41.56 28.6817C41.82 28.7817 41.82 28.7017 41.78 29.0617H33.6299C33.5599 28.6017 33.6999 28.7517 34.0199 28.6817C35.8399 28.2317 36.9999 27.9417 37.4399 25.8617V4.43169C37.3499 2.99169 36.8199 1.67169 35.4099 1.10169C34.7799 0.851692 33.6299 1.13169 33.6299 0.371689H43.25C43.5 0.641689 43.79 0.871695 44.03 1.1517C48.85 6.4417 53.4 11.9417 58.25 17.2217C58.56 17.5617 58.7799 18.1417 59.2899 18.3517L59.2699 18.3317Z" fill="#FAF1E6"/>
<path d="M82.5101 0.351685C82.5101 1.15168 81.6201 0.781688 81.0701 0.901688C80.8501 0.951688 79.6501 1.57168 79.4701 1.73168C79.1001 2.06168 78.5901 3.06168 78.5301 3.56168L78.5601 25.9817C78.9401 27.4117 79.8201 28.1517 81.2501 28.4917C83.0701 28.9217 86.4401 28.2917 88.1801 27.5217C90.4701 26.5217 92.0801 24.6217 93.1201 22.4217C93.3601 21.9217 93.2501 21.2617 93.9501 21.4417L91.8701 29.0417H67.4201C67.3801 28.6817 67.3901 28.7617 67.6401 28.6617C68.0601 28.5017 68.3401 28.5717 68.6801 28.4917C70.2501 28.0917 71.0601 27.2617 71.4001 25.6717V3.72169C71.3801 3.42169 71.1601 2.82168 71.0201 2.55168C70.6101 1.76168 69.5601 1.08168 68.6801 0.911682C68.1701 0.811682 67.4001 1.10169 67.4101 0.361687H82.4901L82.5101 0.351685Z" fill="#FAF1E6"/>
<path d="M14.72 0.351685C14.72 1.15168 13.82 0.781688 13.28 0.901688C12.21 1.13169 11.06 2.28168 10.92 3.38168C11.08 8.89168 10.62 14.5117 11.08 19.9717C11.28 22.3017 11.64 24.9817 13.17 26.8817C16.65 31.2217 24.93 27.1617 25.97 22.3517C26.44 16.0717 26.06 9.70168 26.17 3.38168C26.11 2.90168 25.65 1.98169 25.3 1.65169C25.09 1.45169 24.08 0.961688 23.8 0.901688C23.25 0.781688 22.36 1.15168 22.36 0.351685H30.51V0.871681C28.42 0.641681 27 1.87169 26.7 3.90169V21.5317C25.56 28.2917 17.58 30.6417 11.69 28.7017C7.32999 27.2617 4.10999 24.1717 3.79999 19.4617C3.45999 14.2917 4.06999 8.77168 3.79999 3.56168C3.73999 2.39168 2.55999 1.15169 1.43999 0.901688C0.889987 0.781688 0 1.15168 0 0.351685H14.74H14.72Z" fill="#FAF1E6"/>
<path d="M98.8 19.6217C98.84 19.4817 99.13 19.3017 99.32 19.3617C99.09 23.0617 101.87 26.5517 105.17 27.9617C108.47 29.3717 115.1 29.1617 115.45 24.4617C115.65 21.8617 112.08 19.8517 110.13 18.6917C106.86 16.7517 103.34 15.0717 100.88 12.0117C96.91 7.07172 102.5 0.781722 107.74 0.181722C108.12 0.141722 109.55 -0.018278 109.8 0.00172205C110.3 0.041722 111.19 0.131721 111.68 0.211721C112.88 0.411721 115.35 2.01172 116.37 1.71172C116.84 1.57172 116.67 0.821723 117.35 1.04172V8.90172C117.35 8.90172 117.09 9.25172 117 9.07172C116.7 8.87172 116.73 7.58172 116.65 7.18172C116.09 4.34172 115.09 1.70172 112.02 0.901724C110.23 0.431724 107.65 0.361723 106.08 1.47172C104.34 2.70172 104.23 5.82172 105.48 7.42172C108.73 11.5917 117.21 13.2117 119 17.9717C119.87 20.2917 119.63 22.5717 118.52 24.7617C116.26 29.2617 109.93 29.8417 105.5 28.8217C104.62 28.6217 103.68 28.1117 102.83 27.8617C102.38 27.7317 100.82 27.3117 100.47 27.3417C99.57 27.4117 99.29 28.2417 99.31 29.0317H98.79V19.6117L98.8 19.6217Z" fill="#FAF1E6"/>
</svg>
