<svg width="347" height="206" viewBox="0 0 347 206" fill="none" xmlns="http://www.w3.org/2000/svg">
<path d="M100.523 30.3558C101.993 29.9558 103.653 32.3258 104.303 34.7458C104.813 36.6358 104.773 38.5658 104.083 39.7658C81.083 81.3958 63.793 123.286 66.813 134.426C67.293 136.216 68.433 137.486 69.903 137.086C75.573 135.546 88.843 112.116 108.273 74.3758C121.493 48.6958 138.163 23.6558 149.683 13.3258C150.043 13.0058 150.593 12.5158 151.013 12.4058C152.173 12.0958 153.033 13.2058 153.493 14.8958C154.153 17.3158 153.843 20.7758 152.073 22.1558C144.013 28.6258 130.013 48.0858 114.263 78.6258C94.193 117.326 79.303 144.356 67.223 147.626C63.333 148.676 59.033 147.366 57.693 142.426C55.563 134.546 60.033 119.016 66.943 101.246C47.343 135.866 31.793 157.556 21.503 160.346C17.513 161.426 13.723 159.526 12.563 155.216C11.003 149.436 13.973 139.616 19.533 128.076C34.723 96.3358 62.673 48.4058 58.543 33.1758C57.833 30.5458 56.013 29.2358 52.863 30.0958C39.833 33.6258 22.333 52.6858 11.933 79.6258C12.843 80.0558 13.503 80.4458 13.843 81.7058C14.353 83.5958 9.56303 95.0458 4.52303 96.4058C2.94303 96.8358 1.27303 96.4958 0.363031 93.1358C-3.53697 78.7458 24.613 29.0658 54.653 20.9258C62.633 18.7658 66.363 21.6958 67.503 25.9058C74.643 52.2758 19.353 135.346 22.593 147.326C22.933 148.586 23.703 148.936 24.753 148.656C32.733 146.496 66.043 96.3158 93.093 44.2358C95.203 39.9458 97.333 35.7558 99.033 32.0258C99.463 31.1158 99.983 30.5258 100.503 30.3858L100.523 30.3558Z" fill="#FF0000"/>
<path d="M112.993 127.996C112.763 127.156 113.373 125.636 113.663 124.656C114.703 121.446 115.753 118.226 117.013 114.956C114.373 118.936 110.093 124.386 104.993 129.266C104.813 129.426 104.523 129.616 104.313 129.676C102.633 130.136 100.513 128.566 100.093 126.986C99.9232 126.356 100.093 125.746 100.533 125.286C111.983 114.286 122.603 98.1158 131.823 79.7158C146.723 48.9558 163.933 20.5058 174.483 5.35577C176.613 2.41577 178.723 0.595746 180.503 0.115746C181.763 -0.224254 182.773 0.175753 183.113 1.43575C183.513 2.90575 182.923 5.32575 181.193 8.49575C165.613 37.9657 153.893 57.1558 133.613 90.4958C130.373 96.4458 127.663 102.256 125.223 108.216C134.743 96.7258 145.693 87.2257 149.683 86.1457C151.263 85.7157 153.473 88.0558 153.893 89.6258C154.403 91.5158 149.413 96.8158 147.233 99.9958C143.973 104.596 140.633 110.576 141.513 113.836C141.853 115.096 142.903 116.056 144.163 115.716C151.093 113.836 162.413 96.1158 164.113 93.6258C164.673 92.7958 164.963 92.6057 165.283 92.5157C166.543 92.1757 168.713 93.5058 169.103 94.9758C169.183 95.2958 169.223 95.8457 168.663 96.6757C166.973 99.1657 154.603 120.106 143.253 123.176C138.943 124.346 134.923 122.386 133.783 118.186C132.473 113.356 134.713 107.896 138.323 102.076C129.383 110.696 124.913 117.096 119.983 126.776C119.173 128.346 118.483 129.546 117.643 129.776C116.063 130.206 113.273 129.046 112.983 127.996H112.993Z" fill="#FF0000"/>
<path d="M159.823 110.246C156.383 97.5357 170.953 80.1757 183.983 76.6457C188.813 75.3357 192.493 77.2757 194.323 80.2757L196.903 76.0757C198.703 73.5557 198.983 72.9157 199.503 72.7757C200.973 72.3757 203.123 74.0557 203.863 76.7857C204.033 77.4157 203.893 78.1357 203.273 79.1957C202.123 81.1957 200.173 83.9857 197.883 87.1957C195.133 91.2057 191.773 96.2857 192.863 100.286C193.373 102.176 194.573 102.416 196.033 102.016C202.443 100.276 214.413 82.0457 216.003 79.5857C216.563 78.7557 216.853 78.5657 217.173 78.4757C218.433 78.1357 220.593 79.4657 220.993 80.9357C221.073 81.2557 221.113 81.8057 220.553 82.6357C219.043 84.9657 206.263 106.466 195.653 109.336C190.823 110.646 187.433 108.966 186.583 105.816C186.183 104.346 186.103 102.786 186.333 101.146C181.713 107.806 176.013 114.656 169.293 116.476C164.463 117.786 161.193 115.286 159.823 110.246ZM171.733 107.586C176.883 106.196 184.453 95.4557 190.703 85.6457C189.603 83.2357 187.103 82.3357 184.163 83.1357C179.543 84.3857 174.333 89.2957 171.883 92.3257C167.613 98.2157 166.563 102.226 167.273 104.846C167.873 107.056 169.423 108.206 171.733 107.586Z" fill="#FF0000"/>
<path d="M227.973 51.7558L210.643 56.4558C209.173 56.8558 208.433 56.6058 208.253 55.9758C207.793 54.2958 210.213 50.7058 214.133 48.9758C220.603 46.2058 227.073 43.8958 233.453 42.0558C240.323 30.3858 247.123 20.0858 251.053 14.6258C252.283 12.9358 253.593 11.9058 254.633 11.6258C255.473 11.3958 256.243 11.7558 256.503 12.6958C256.763 13.6358 256.523 15.2858 255.753 17.4058C253.433 22.9958 249.223 31.5758 244.463 40.6458L248.883 39.8958C250.203 39.7658 250.843 40.0458 251.063 40.8858C251.493 42.4658 248.973 46.0758 246.763 46.6758L240.043 48.4958C234.613 58.4258 228.843 68.3258 224.083 76.1558C221.683 81.4258 220.313 85.9758 221.453 90.1758C221.913 91.8558 223.463 93.0158 225.353 92.5058C229.873 91.2858 233.583 85.4258 235.033 82.8958C235.233 82.3958 235.553 82.3058 235.863 82.2158C237.023 81.9058 238.863 83.3158 239.323 84.9958C239.433 85.4158 239.473 85.9658 239.293 86.1358C238.143 89.3758 233.243 99.1658 223.363 101.836C219.373 102.916 215.873 100.826 214.503 95.7758C211.463 84.5358 221.443 64.8058 227.953 51.7658L227.973 51.7558Z" fill="#FF0000"/>
<path d="M256.083 47.2958C255.753 47.7258 255.043 48.0258 254.623 48.1458C253.053 48.5758 251.223 47.2658 250.833 45.7958C250.573 44.8458 250.963 44.1858 251.993 43.0058C254.583 40.5058 258.303 35.0958 259.433 32.1958C258.733 31.7058 258.223 31.0558 257.823 29.5858C256.433 24.4358 260.153 16.5558 265.513 15.0958C267.933 14.4458 269.873 15.3858 270.613 18.1158C272.893 26.5158 262.233 40.4558 256.083 47.3058V47.2958Z" fill="#FF0000"/>
<path d="M264.143 84.5758C263.743 83.1058 265.793 79.8458 267.263 79.4458C267.583 79.3658 267.923 79.3758 268.143 79.7758C269.033 80.9958 270.263 81.7958 271.843 81.3658C275.733 80.3158 280.203 74.3658 279.533 65.6358C279.283 62.2058 278.273 59.3258 277.713 56.4358C275.133 62.3158 272.223 67.3958 271.383 68.8658C271.073 69.3958 263.703 81.3158 256.033 88.3558C255.563 88.7058 255.273 88.8958 254.753 89.0358C253.073 89.4958 251.123 88.1058 250.723 86.6358C250.523 85.9058 250.673 85.1858 251.473 84.4058C259.573 77.2558 266.303 66.7458 266.953 65.7858C267.903 64.2858 272.723 55.8758 275.323 50.8958C278.073 45.6458 278.993 44.0358 280.773 43.5558C282.663 43.0458 284.963 44.4558 285.303 45.7158C285.443 46.2358 285.423 46.5858 285.273 46.8458C282.673 51.8358 285.223 56.6658 286.533 65.2258C287.623 72.5958 285.953 85.5658 273.453 88.9458C268.093 90.3958 264.953 87.5258 264.153 84.5858L264.143 84.5758Z" fill="#FF0000"/>
<path d="M242.503 68.0058C242.733 68.8458 242.643 69.7758 242.313 70.6458C247.983 69.1058 251.473 71.9958 253.123 78.0858C257.053 92.5858 247.053 123.926 233.433 149.826C219.973 175.456 199.143 199.706 182.123 204.316C173.723 206.596 165.303 204.246 162.263 193.006C157.883 176.826 165.503 146.696 180.803 120.336C199.533 88.3158 222.163 69.8958 234.663 66.5158C236.553 66.0058 241.683 64.9558 242.503 67.9958V68.0058ZM235.983 75.1858C235.083 75.2058 234.113 75.3558 233.163 75.6058C223.503 78.2258 204.843 94.6658 187.903 123.716C173.373 148.736 167.043 173.676 170.463 186.276C172.283 192.996 177.963 196.086 184.583 194.286C198.243 190.586 215.733 168.596 227.573 146.116C239.583 123.016 244.073 107.146 244.573 93.5958C244.633 91.3258 244.463 89.4558 244.063 87.9858C242.983 83.9958 240.323 82.9158 237.903 83.5658C236.643 83.9058 236.263 84.5758 235.733 84.7158C234.993 84.9158 234.053 83.9358 233.683 82.5658C232.973 79.9358 233.973 77.4158 235.963 75.1858H235.983Z" fill="#FF0000"/>
<path d="M263.703 173.776C267.063 172.866 271.263 168.796 272.623 164.256C272.743 163.886 273.063 163.796 273.373 163.716C274.423 163.436 276.443 164.236 276.673 165.076C277.553 168.336 272.243 178.676 262.053 181.436C257.743 182.606 253.723 180.646 252.583 176.446C251.273 171.616 253.513 166.156 257.123 160.336C248.183 168.956 243.713 175.356 238.783 185.036C237.973 186.606 237.283 187.806 236.443 188.036C235.183 188.376 232.073 187.306 231.793 186.256C231.513 185.206 232.273 183.866 232.463 182.916C236.223 171.416 239.333 162.906 242.713 152.066C243.013 151.086 243.453 150.626 244.713 150.286C246.503 149.806 249.623 150.536 250.193 152.636C250.533 153.896 248.193 158.136 245.133 165.166C254.233 154.246 264.603 145.466 268.483 144.406C270.063 143.976 272.273 146.316 272.693 147.886C273.203 149.776 268.213 155.076 266.033 158.256C262.773 162.856 259.433 168.836 260.313 172.096C260.653 173.356 261.703 174.316 263.703 173.776Z" fill="#FF0000"/>
<path d="M290.652 169.626C289.262 164.476 292.952 156.486 298.212 155.066C300.632 154.416 302.702 155.426 303.442 158.156C304.832 163.306 300.532 171.566 295.702 172.876C293.602 173.446 291.392 172.356 290.652 169.626ZM307.172 144.856C305.802 145.226 303.992 144.366 303.572 142.786C303.432 142.266 303.362 141.606 303.772 141.036C308.822 129.296 317.072 120.636 325.202 113.586C328.942 110.316 339.682 102.106 337.862 95.3859C337.062 92.4459 334.072 90.5459 328.822 91.9759C326.512 92.6059 323.792 93.7959 320.742 95.8559C320.532 95.9159 320.482 96.1559 320.272 96.2059C319.642 96.3759 319.132 95.7259 318.872 94.7859C318.442 93.2059 318.892 90.2759 320.682 88.9959C323.912 86.7659 327.132 85.3359 329.862 84.5959C338.372 82.2959 344.542 85.9159 346.242 92.2259C348.892 101.996 340.132 110.456 332.882 116.586C319.892 127.316 314.082 132.506 308.912 143.376C308.562 144.146 308.012 144.636 307.172 144.866V144.856Z" fill="#FF0000"/>
</svg>
